<svg width="800" height="600" viewBox="0 0 800 600" xmlns="http://www.w3.org/2000/svg">
  <defs>
    <linearGradient id="skyGrad" x1="0%" y1="0%" x2="0%" y2="100%">
      <stop offset="0%" style="stop-color:#87CEEB;stop-opacity:1" />
      <stop offset="100%" style="stop-color:#E0F6FF;stop-opacity:1" />
    </linearGradient>
  </defs>
  
  <!-- Background -->
  <rect width="800" height="600" fill="url(#skyGrad)"/>
  
  <!-- Runway -->
  <rect x="0" y="450" width="800" height="150" fill="#636E72"/>
  <rect x="0" y="520" width="800" height="10" fill="#FFFFFF"/>
  
  <!-- Cargo Plane -->
  <g transform="translate(200,300)">
    <!-- Fuselage -->
    <ellipse cx="0" cy="0" rx="150" ry="25" fill="#74B9FF"/>
    <ellipse cx="0" cy="0" rx="140" ry="20" fill="#0984E3"/>
    
    <!-- Wings -->
    <ellipse cx="-30" cy="0" rx="80" ry="15" fill="#2D3436"/>
    <ellipse cx="30" cy="0" rx="60" ry="12" fill="#2D3436"/>
    
    <!-- Engines -->
    <ellipse cx="-60" cy="-8" rx="20" ry="8" fill="#636E72"/>
    <ellipse cx="-60" cy="8" rx="20" ry="8" fill="#636E72"/>
    <ellipse cx="60" cy="-8" rx="15" ry="6" fill="#636E72"/>
    <ellipse cx="60" cy="8" rx="15" ry="6" fill="#636E72"/>
    
    <!-- Cockpit -->
    <ellipse cx="120" cy="0" rx="30" ry="15" fill="#2D3436"/>
    <ellipse cx="130" cy="0" rx="15" ry="8" fill="#74B9FF"/>
    
    <!-- Cargo Door -->
    <rect x="-80" y="-15" width="40" height="30" fill="#2D3436" stroke="#636E72" stroke-width="2"/>
    
    <!-- Landing Gear -->
    <rect x="-20" y="25" width="4" height="20" fill="#2D3436"/>
    <rect x="20" y="25" width="4" height="20" fill="#2D3436"/>
    <circle cx="-18" cy="47" r="6" fill="#636E72"/>
    <circle cx="22" cy="47" r="6" fill="#636E72"/>
  </g>
  
  <!-- Cargo Containers -->
  <g transform="translate(50,400)">
    <rect x="0" y="0" width="30" height="30" fill="#FF6B6B" stroke="#D63031" stroke-width="2"/>
    <rect x="35" y="0" width="30" height="30" fill="#4ECDC4" stroke="#00B894" stroke-width="2"/>
    <rect x="70" y="0" width="30" height="30" fill="#45B7D1" stroke="#0984E3" stroke-width="2"/>
  </g>
  
  <!-- Control Tower -->
  <g transform="translate(650,200)">
    <rect x="0" y="100" width="40" height="200" fill="#636E72"/>
    <rect x="-10" y="80" width="60" height="40" fill="#2D3436"/>
    <rect x="-5" y="85" width="50" height="30" fill="#74B9FF"/>
    <!-- Windows -->
    <rect x="0" y="90" width="8" height="8" fill="#FFFFFF"/>
    <rect x="12" y="90" width="8" height="8" fill="#FFFFFF"/>
    <rect x="24" y="90" width="8" height="8" fill="#FFFFFF"/>
    <rect x="36" y="90" width="8" height="8" fill="#FFFFFF"/>
  </g>
  
  <!-- Clouds -->
  <g fill="#FFFFFF" opacity="0.7">
    <circle cx="100" cy="100" r="25"/>
    <circle cx="125" cy="100" r="30"/>
    <circle cx="150" cy="100" r="25"/>
    
    <circle cx="600" cy="150" r="20"/>
    <circle cx="620" cy="150" r="25"/>
    <circle cx="640" cy="150" r="20"/>
  </g>
  
  <!-- Text -->
  <text x="400" y="550" text-anchor="middle" font-family="Arial, sans-serif" font-size="20" font-weight="bold" fill="#2D3436">Air Freight Services</text>
</svg>